<svg width="68" height="50" viewBox="0 0 68 50" fill="none" xmlns="http://www.w3.org/2000/svg">
<path d="M8.81784 46.8452C8.89994 49.3921 7.56983 49.5071 5.73066 49.047C4.35128 48.7019 2.90622 48.5869 1.47758 48.3897C0.344522 48.2254 -0.148112 47.6504 0.0325202 46.4509C0.984947 40.4699 1.92095 34.489 2.82412 28.4916C3.00475 27.2429 3.53023 26.7335 4.8275 26.9635C6.55172 27.2757 8.27594 27.5386 10.0166 27.7522C11.3139 27.9165 11.6423 28.5573 11.4945 29.8061C11.4124 30.5455 11.8065 31.3342 11.9871 32.1065C12.7918 31.8107 13.7606 31.6957 14.3682 31.1699C17.4389 28.5738 21.0023 27.933 24.7628 28.6888C31.5119 30.069 38.2445 31.1699 45.1907 30.6112C48.4749 30.3483 49.8543 31.8764 50.2977 35.7049C51.0202 35.5242 51.7099 35.3598 52.3996 35.1462C55.6838 34.1439 58.9516 33.1088 62.2523 32.1229C64.7483 31.3835 66.8995 32.4187 67.7534 34.6697C68.5087 36.6743 67.6548 38.4818 65.2902 39.6319C60.7415 41.8337 56.2914 44.3477 51.5293 46.0072C47.2598 47.486 42.629 47.8475 38.2117 48.9484C28.9994 51.2488 20.1156 49.2277 11.1989 47.2889C10.5092 47.1574 9.83595 47.0424 8.81784 46.8452ZM2.23295 46.303C3.48096 46.533 4.44981 46.8452 5.43508 46.8288C5.91129 46.8288 6.74877 46.2866 6.81446 45.8922C7.71762 40.6178 8.50584 35.327 9.35974 29.8225C7.83257 29.5596 6.45319 29.3296 4.86034 29.0667C3.9736 34.9326 3.10328 40.5685 2.23295 46.303Z" fill="#FFBA15"/>
<path d="M23.1206 14.3937C23.1371 6.37529 29.5249 -0.0164301 37.522 1.09088e-06C45.4862 0.0164322 51.9069 6.45745 51.8905 14.443C51.8905 22.4121 45.437 28.8531 37.4727 28.8531C29.5085 28.8367 23.1042 22.3792 23.1206 14.3937Z" fill="#FFBA15"/>
<path d="M31.709 15.1331L34.6155 20.3089L40.2234 15.4617L45.8312 10.6145" stroke="white" stroke-width="5" stroke-miterlimit="10"/>
</svg>
