<svg width="80" height="43" viewBox="0 0 80 43" fill="none" xmlns="http://www.w3.org/2000/svg">
<g clip-path="url(#clip0_51_12)">
<path d="M14.8643 39.6903C14.8643 39.1518 14.8776 38.6133 14.9173 38.088L0.0794176 37.1292C0.0264725 37.9829 0 38.8366 0 39.6903C0 40.544 0.0264725 41.3977 0.0794176 42.2514L14.9173 41.3057C14.8908 40.7673 14.8643 40.2288 14.8643 39.6903Z" fill="#FFBA15"/>
<path d="M53.9511 18.9389L62.1973 6.65882C60.7678 5.71319 59.2853 4.85949 57.7367 4.09773L51.145 17.3366C52.1113 17.8094 53.051 18.3479 53.9511 18.9389Z" fill="#FFBA15"/>
<path d="M48.0608 16.0626L52.8258 2.08828C51.211 1.54979 49.5432 1.10324 47.849 0.761765L44.937 15.2352C45.9959 15.4453 47.0416 15.7211 48.0608 16.0626Z" fill="#FFBA15"/>
<path d="M58.8748 23.2337L70.0462 13.4884C68.9079 12.2013 67.6902 10.993 66.4063 9.8766L56.585 20.9615C57.4056 21.6707 58.1733 22.4325 58.8748 23.2337Z" fill="#FFBA15"/>
<path d="M62.5414 28.6448L75.8703 22.1042C75.1026 20.5675 74.2423 19.0965 73.2892 17.6781L60.9133 25.8604C61.509 26.7404 62.0516 27.6729 62.5414 28.6448Z" fill="#FFBA15"/>
<path d="M65.1357 39.6903C65.1357 40.2288 65.1225 40.7673 65.0828 41.2926L79.9206 42.2382C79.9736 41.3977 80 40.544 80 39.6772C80 38.8235 79.9736 37.9698 79.9206 37.1161L65.0828 38.088C65.1225 38.6133 65.1357 39.1518 65.1357 39.6903Z" fill="#FFBA15"/>
<path d="M64.6459 34.8045L79.2323 31.9151C78.8881 30.2208 78.4513 28.5791 77.8954 26.9768L63.812 31.705C64.1562 32.7031 64.4341 33.7407 64.6459 34.8045Z" fill="#FFBA15"/>
<path d="M19.0866 25.8604L6.71071 17.6781C5.7577 19.0965 4.89734 20.5675 4.12964 22.1042L17.4718 28.6448C17.9483 27.6729 18.491 26.7404 19.0866 25.8604Z" fill="#FFBA15"/>
<path d="M16.1881 31.6918L2.10469 26.9637C1.562 28.566 1.11197 30.2208 0.767822 31.902L15.3542 34.8045C15.566 33.7407 15.8439 32.7031 16.1881 31.6918Z" fill="#FFBA15"/>
<path d="M23.4149 20.9615L13.5936 9.8766C12.2964 11.0061 11.0787 12.2144 9.95361 13.4884L21.125 23.2337C21.8398 22.4325 22.6075 21.6707 23.4149 20.9615Z" fill="#FFBA15"/>
<path d="M35.0761 15.2352L32.1641 0.761765C30.4566 1.10324 28.8021 1.53666 27.1873 2.08828L31.9523 16.0626C32.9583 15.7211 34.0039 15.4453 35.0761 15.2352Z" fill="#FFBA15"/>
<path d="M40 14.7492C40.5427 14.7492 41.0854 14.7624 41.6148 14.8018L42.5679 0.0788027C41.734 0.0262676 40.8736 0 40 0C39.1397 0 38.2793 0.0262676 37.4189 0.0788027L38.372 14.8018C38.9146 14.7755 39.4573 14.7492 40 14.7492Z" fill="#FFBA15"/>
<path d="M28.8682 17.3366L22.2765 4.09773C20.7279 4.85949 19.2454 5.71319 17.8159 6.65882L26.0621 18.9389C26.9489 18.3479 27.8887 17.8094 28.8682 17.3366Z" fill="#FFBA15"/>
<path d="M41.7158 42.1324C42.8685 40.9886 42.8685 39.1342 41.7158 37.9904C40.5631 36.8467 38.6942 36.8467 37.5415 37.9904C36.3888 39.1342 36.3888 40.9886 37.5415 42.1324C38.6942 43.2761 40.5631 43.2761 41.7158 42.1324Z" fill="#FFBA15"/>
<path d="M38.3984 41.6604L38.4911 41.7129C39.55 42.3696 40.953 41.9756 41.5089 40.8592L50.7743 22.3668C50.8802 22.1436 50.5758 21.9597 50.4302 22.1567L37.8292 38.587C37.0748 39.5852 37.3395 41.0037 38.3984 41.6604Z" fill="#FFBA15"/>
</g>
<defs>
<clipPath id="clip0_51_12">
<rect width="80" height="43" fill="white"/>
</clipPath>
</defs>
</svg>
