<svg width="116" height="35" viewBox="0 0 116 35" fill="none" xmlns="http://www.w3.org/2000/svg">
<g clip-path="url(#clip0_51_7)">
<path d="M0.164454 13.3126C0.433561 13.2676 0.702668 13.2075 0.971775 13.1775C4.75422 12.8323 8.55162 12.4871 12.3341 12.172C12.947 12.1269 13.2311 11.8568 13.4553 11.3165C14.9055 7.84948 16.3856 4.3825 17.8508 0.930526C17.9554 0.67538 18.1049 0.420234 18.3142 -0.0150146C18.5385 0.420234 18.7179 0.690389 18.8375 0.99056C20.3176 4.44253 21.7977 7.90951 23.2478 11.3765C23.4721 11.9018 23.7562 12.1119 24.3243 12.1569C28.1665 12.4721 32.0088 12.8323 35.866 13.1775C36.0902 13.1925 36.2995 13.2526 36.6583 13.3126C36.4341 13.5527 36.2995 13.7328 36.15 13.8679C33.2795 16.3894 30.424 18.9108 27.5386 21.4022C27.0004 21.8675 26.821 22.3177 27.0004 23.0382C27.8526 26.6402 28.6599 30.2573 29.4672 33.8744C29.542 34.1745 29.6018 34.4747 29.7064 34.985C29.3177 34.8049 29.1084 34.7148 28.8991 34.5948C25.6549 32.6587 22.4106 30.7226 19.1813 28.7414C18.5684 28.3662 18.1049 28.3662 17.477 28.7414C14.2328 30.7376 10.9586 32.6737 7.6845 34.6398C7.52004 34.7449 7.34064 34.8049 6.96688 34.985C7.22103 33.7993 7.43034 32.7787 7.66954 31.7581C8.32736 28.8765 8.95528 25.9798 9.65794 23.1132C9.8523 22.3177 9.64299 21.8375 9.05993 21.3422C6.23431 18.9108 3.45354 16.4494 0.642866 13.988C0.448511 13.8229 0.209305 13.7178 0 13.5828C0.0598015 13.4927 0.104653 13.4027 0.164454 13.3126Z" fill="#FFBA15"/>
<path d="M40.8595 13.3126C41.1286 13.2676 41.3977 13.2075 41.6668 13.1775C45.4492 12.8323 49.2466 12.4871 53.0291 12.172C53.642 12.1269 53.9261 11.8568 54.1504 11.3165C55.6005 7.84948 57.0806 4.3825 58.5458 0.930526C58.6504 0.67538 58.7999 0.420234 59.0092 -0.0150146C59.2335 0.420234 59.4129 0.690389 59.5325 0.99056C61.0126 4.44253 62.4927 7.90951 63.9429 11.3765C64.1671 11.9018 64.4512 12.1119 65.0193 12.1569C68.8615 12.4721 72.7038 12.8323 76.561 13.1775C76.7852 13.1925 76.9945 13.2526 77.3533 13.3126C77.1291 13.5527 76.9945 13.7328 76.845 13.8679C73.9746 16.3894 71.119 18.9108 68.2336 21.4022C67.6954 21.8675 67.516 22.3177 67.6954 23.0382C68.5476 26.6402 69.3549 30.2573 70.1622 33.8744C70.237 34.1745 70.2968 34.4747 70.4014 34.985C70.0127 34.8049 69.8034 34.7148 69.5941 34.5948C66.3499 32.6587 63.1056 30.7226 59.8764 28.7414C59.2634 28.3662 58.7999 28.3662 58.172 28.7414C54.9278 30.7376 51.6536 32.6737 48.3795 34.6398C48.2151 34.7449 48.0356 34.8049 47.6619 34.985C47.916 33.7993 48.1254 32.7787 48.3646 31.7581C49.0224 28.8765 49.6503 25.9798 50.353 23.1132C50.5473 22.3177 50.338 21.8375 49.7549 21.3422C46.9293 18.9108 44.1486 16.4344 41.3528 13.973C41.1585 13.8079 40.9193 13.7028 40.71 13.5677C40.7548 13.4927 40.8146 13.4027 40.8595 13.3126Z" fill="#FFBA15"/>
<path d="M79.5062 13.3126C79.7753 13.2676 80.0444 13.2075 80.3135 13.1775C84.096 12.8323 87.8934 12.4871 91.6758 12.172C92.2888 12.1269 92.5728 11.8568 92.7971 11.3165C94.2473 7.84948 95.7274 4.3825 97.1925 0.930526C97.2971 0.67538 97.4467 0.420234 97.656 -0.0150146C97.8802 0.420234 98.0596 0.690389 98.1792 0.99056C99.6593 4.44253 101.139 7.90951 102.59 11.3765C102.814 11.9018 103.098 12.1119 103.666 12.1569C107.508 12.4721 111.351 12.8323 115.208 13.1775C115.432 13.1925 115.641 13.2526 116 13.3126C115.776 13.5527 115.641 13.7328 115.492 13.8679C112.621 16.3894 109.766 18.9108 106.88 21.4022C106.342 21.8675 106.163 22.3177 106.342 23.0382C107.194 26.6402 108.002 30.2573 108.809 33.8744C108.884 34.1745 108.943 34.4747 109.048 34.985C108.659 34.8049 108.45 34.7148 108.241 34.5948C104.997 32.6587 101.752 30.7226 98.5231 28.7414C97.9101 28.3662 97.4466 28.3662 96.8187 28.7414C93.5745 30.7376 90.3004 32.6737 87.0262 34.6398C86.8618 34.7449 86.6824 34.8049 86.3086 34.985C86.5628 33.7993 86.7721 32.7787 87.0113 31.7581C87.6691 28.8765 88.297 25.9798 88.9997 23.1132C89.194 22.3177 88.9847 21.8375 88.4017 21.3422C85.576 18.9108 82.7953 16.4344 79.9996 13.973C79.8052 13.8079 79.566 13.7028 79.3567 13.5677C79.4015 13.4927 79.4613 13.4027 79.5062 13.3126Z" fill="#FFBA15"/>
</g>
<defs>
<clipPath id="clip0_51_7">
<rect width="116" height="35" fill="white"/>
</clipPath>
</defs>
</svg>
